<?xml version="1.0" encoding="utf-8"?>
<!-- Generator: Adobe Illustrator 20.1.0, SVG Export Plug-In . SVG Version: 6.00 Build 0)  -->
<svg version="1.1" id="Layer_1" xmlns="http://www.w3.org/2000/svg" xmlns:xlink="http://www.w3.org/1999/xlink" x="0px" y="0px"
	 viewBox="0 0 100 100" style="enable-background:new 0 0 100 100;" xml:space="preserve">
<title>logo</title>
<g id="Layer_2">
	<g id="logo">
		<path d="M61.2,72.6H40.8c-0.1-9.7-4.7-14.9-9.2-20c-4.8-5.4-9.4-10.5-9.4-21.5c0-12,8.2-22.5,19.9-25.3v10.3
			c0.1,0.6-0.3,1.2-0.9,1.3c-0.1,0-0.2,0-0.4,0h-1.2c-3.5,0-6.3,2.8-6.3,6.3c0,0,0,0,0,0v16.5c0,1.7,0.6,3.3,1.8,4.5
			c1.2,1.2,2.8,1.9,4.5,1.8h1.8c3.5,0,6.3-2.8,6.3-6.3c0,0,0,0,0,0V15.8c0-0.1,0-0.2,0-0.3V2.6c0-1.4-1.1-2.6-2.6-2.6
			C45.1,0,45,0,45,0C29.1,1.7,17.1,15.1,17.1,31.1c0,13,5.7,19.3,10.7,24.9c4.3,4.8,8,8.9,8,16.8v2.3c0,1.4,1.1,2.5,2.5,2.5
			c0,0,0,0,0,0h23c1.4,0,2.6-1.1,2.6-2.6S62.7,72.6,61.2,72.6L61.2,72.6z M42.4,38.8c0.1,0.9-0.5,1.7-1.3,1.8c-0.2,0-0.3,0-0.5,0
			c-0.9,0.1-1.7-0.5-1.8-1.3c0-0.2,0-0.3,0-0.5V25.2c-0.1-0.9,0.5-1.7,1.3-1.8c0.2,0,0.3,0,0.5,0c0.9-0.1,1.7,0.4,1.8,1.3
			c0,0.2,0,0.3,0,0.5V38.8z"/>
		<path d="M55.1,0c-1.4-0.2-2.7,0.8-2.8,2.2c0,0,0,0,0,0c0,0.1,0,0.2,0,0.3c0,1.3,0.9,2.4,2.2,2.6c13.3,1.4,23.3,12.6,23.3,26
			c0,11-4.5,16.1-9.4,21.5c-2.9,3.3-5.9,6.8-7.7,11.5H57V47.6c-0.1-0.6,0.3-1.2,0.9-1.3c0.1,0,0.2,0,0.3,0h1.3
			c3.5,0,6.3-2.8,6.3-6.3V23.5c0-1.7-0.7-3.3-1.9-4.5c-1.2-1.2-2.8-1.9-4.5-1.8h-1.8c-3.5,0-6.3,2.8-6.3,6.3c0,0,0,0,0,0v43
			c0,0.5,0.2,1,0.5,1.4c0.5,0.8,1.3,1.2,2.2,1.2h8.5c1.2,0,2.2-0.8,2.5-1.9c1.3-4.6,4.2-7.8,7.2-11.3c5-5.6,10.7-11.9,10.7-24.9
			C82.9,15.2,70.9,1.8,55.1,0z M56.7,24.9c-0.1-0.9,0.4-1.7,1.3-1.8c0.2,0,0.3,0,0.5,0c0.9-0.1,1.7,0.5,1.8,1.3c0,0.2,0,0.3,0,0.5
			v13.6c0.1,0.9-0.5,1.7-1.3,1.8c-0.2,0-0.3,0-0.5,0c-0.9,0.1-1.7-0.4-1.8-1.3c0-0.2,0-0.3,0-0.5V24.9z"/>
		<path d="M38.3,80.1c-1.4,0-2.6,1.1-2.6,2.6s1.1,2.6,2.6,2.6H61c1.4,0,2.6-1.1,2.6-2.6s-1.1-2.6-2.6-2.6H38.3z"/>
		<path d="M38.3,87.5c-1.4,0-2.6,1.1-2.6,2.6c0,1.4,1.1,2.6,2.6,2.6H61c1.4,0,2.6-1.1,2.6-2.6c0-1.4-1.1-2.6-2.6-2.6H38.3z"/>
		<path d="M45.6,94.9c-1.4,0-2.6,1.1-2.6,2.6s1.1,2.6,2.6,2.6h8.1c1.4,0,2.6-1.1,2.6-2.6s-1.1-2.6-2.6-2.6H45.6z"/>
	</g>
</g>
</svg>
